# xmcd
#
# Track frame offsets:
# 150
# 10934
# 22609
# 40259
# 57975
# 70673
# 86605
# 99345
# 116035
# 125976
# 145436
#
# Disc length: 2202 seconds
#
#
# Revision: 0
# Processed by: cddbd v1.5.2PL0 Copyright (c) Steve Scherf et al.
# Submitted via: FreeRIP 2.945 
#
DISCID=9108980b
DTITLE=Kevin Bloody Wilson - DILLIGAF
DYEAR=2006
DGENRE=Humour
TTITLE0=Dilligaf
TTITLE1=His Cock's Got Ribs
TTITLE2=Missin' The Missus
TTITLE3=The Truckies Kid
TTITLE4=The House Of The Rising Flood
TTITLE5=Nothing Funnier Than A Fart
TTITLE6=The Shane Warne Song
TTITLE7=Missing You
TTITLE8=Hey GMH
TTITLE9=Nigel, Fuckin' Legend
TTITLE10=Disgraceland
EXTD=
EXTT0=
EXTT1=
EXTT2=
EXTT3=
EXTT4=
EXTT5=
EXTT6=
EXTT7=
EXTT8=
EXTT9=
EXTT10=
PLAYORDER=
